<svg width="20" height="20" viewBox="0 0 20 20" fill="none" xmlns="http://www.w3.org/2000/svg">
<path d="M10 0.833008C9.33696 0.833008 8.70107 1.0964 8.23223 1.56524C7.76339 2.03408 7.5 2.66997 7.5 3.33301V9.99967C7.5 10.6627 7.76339 11.2986 8.23223 11.7674C8.70107 12.2363 9.33696 12.4997 10 12.4997C10.663 12.4997 11.2989 12.2363 11.7678 11.7674C12.2366 11.2986 12.5 10.6627 12.5 9.99967V3.33301C12.5 2.66997 12.2366 2.03408 11.7678 1.56524C11.2989 1.0964 10.663 0.833008 10 0.833008V0.833008Z" stroke="black" stroke-width="1.5" stroke-linecap="round" stroke-linejoin="round"/>
<path d="M15.8332 8.33301V9.99967C15.8332 11.5468 15.2186 13.0305 14.1246 14.1245C13.0307 15.2184 11.5469 15.833 9.99984 15.833C8.45274 15.833 6.96901 15.2184 5.87505 14.1245C4.78109 13.0305 4.1665 11.5468 4.1665 9.99967V8.33301" stroke="black" stroke-width="1.5" stroke-linecap="round" stroke-linejoin="round"/>
<path d="M10 15.833V19.1663" stroke="black" stroke-width="1.5" stroke-linecap="round" stroke-linejoin="round"/>
<path d="M6.6665 19.167H13.3332" stroke="black" stroke-width="1.5" stroke-linecap="round" stroke-linejoin="round"/>
</svg>
